<?xml version="1.0" encoding="iso-8859-1"?>
<!-- Generator: Adobe Illustrator 16.0.0, SVG Export Plug-In . SVG Version: 6.00 Build 0)  -->
<!DOCTYPE svg PUBLIC "-//W3C//DTD SVG 1.1//EN" "http://www.w3.org/Graphics/SVG/1.1/DTD/svg11.dtd">
<svg version="1.1" id="Capa_1" xmlns="http://www.w3.org/2000/svg" xmlns:xlink="http://www.w3.org/1999/xlink" x="0px" y="0px"
	 width="424.455px" height="424.454px" viewBox="0 0 424.455 424.454" style="enable-background:new 0 0 424.455 424.454;"
	 xml:space="preserve">
<g>
	<g>
		<g>
			<path d="M43.381,392.727V27.274h198.906V82.69c0,5.6,4.535,10.133,10.131,10.133h53.792l0.006,107.58
				c1.39,0.861,2.661,1.859,3.799,2.98c0.662-0.578,1.335-1.143,2.03-1.684c3.719-2.898,8.418-4.514,13.188-4.514
				c2.831,0,5.642,0.572,8.249,1.654V77.743c0-2.168-0.861-4.248-2.396-5.787L261.523,2.395C259.991,0.862,257.911,0,255.739,0
				H40.655C27.121,0,16.109,11.008,16.109,24.543v370.914C16.109,408.99,27.121,420,40.655,420H251.18
				c-3.803-7.332-7.117-16.381-10.01-27.273H43.381z"/>
			<path d="M373.794,308.637c-0.883-2.268-3.072-3.881-5.653-3.881H253.572c-3.359,0-6.082,2.723-6.082,6.082v2.674
				c0,9.336,6.286,95.51,28.863,109.498l0.826,0.519c0.968,0.604,2.085,0.926,3.228,0.926h60.898c1.14,0,2.26-0.318,3.228-0.926
				l0.803-0.5c4.822-2.99,8.9-9.285,12.334-17.4c20.741-5.406,50.676-22.539,50.676-59.479
				C408.343,310.913,389.3,308.768,373.794,308.637z M364.369,384.824c5.172-20.644,7.932-44.438,9.12-58.872
				c13.736,0.055,17.541,1.105,17.541,20.191C391.03,367.955,376.566,379.211,364.369,384.824z"/>
			<path d="M293.203,217.375c-0.529-0.293-1.188-0.242-1.669,0.133c-10.918,8.463-14.94,26.351-8.613,38.267
				c3.03,5.713,5.434,10.547,6.487,16.413c1.118,6.232,1.327,12.727,1.528,19.007l0.012,0.298c0.021,0.604,0.397,1.144,0.962,1.364
				c0.183,0.071,0.369,0.104,0.559,0.104c0.396,0,0.788-0.153,1.079-0.444c9.7-9.771,11.695-27.603,4.546-40.595
				c-3.063-5.562-4.521-10.06-4.874-15.023c-0.433-6.059,0.176-12.148,0.763-18.039
				C294.039,218.254,293.735,217.672,293.203,217.375z"/>
			<path d="M323.514,217.375c-0.531-0.293-1.188-0.242-1.669,0.133c-10.918,8.463-14.942,26.351-8.614,38.267
				c3.031,5.713,5.433,10.547,6.488,16.413c1.118,6.232,1.326,12.727,1.527,19.007l0.013,0.298c0.019,0.604,0.396,1.144,0.962,1.364
				c0.181,0.071,0.369,0.104,0.557,0.104c0.397,0,0.788-0.153,1.079-0.444c9.701-9.771,11.697-27.603,4.547-40.595
				c-3.062-5.562-4.521-10.06-4.874-15.023c-0.432-6.059,0.175-12.148,0.763-18.039C324.35,218.254,324.046,217.672,323.514,217.375
				z"/>
			<path d="M207.089,67.361H73.596c-7.18,0-13,5.82-13,13c0,7.18,5.82,13,13,13h133.493c7.18,0,13-5.82,13-13
				C220.089,73.181,214.269,67.361,207.089,67.361z"/>
			<path d="M73.596,153.361h91.493c7.18,0,13-5.82,13-13c0-7.18-5.82-13-13-13H73.596c-7.18,0-13,5.82-13,13
				C60.596,147.541,66.416,153.361,73.596,153.361z"/>
			<path d="M220.089,200.361c0-7.18-5.82-13-13-13H73.596c-7.18,0-13,5.82-13,13c0,7.18,5.82,13,13,13h133.493
				C214.269,213.361,220.089,207.54,220.089,200.361z"/>
			<path d="M73.596,247.361c-7.18,0-13,5.819-13,13c0,7.18,5.82,13,13,13h103.493c7.18,0,13-5.82,13-13c0-7.181-5.82-13-13-13
				H73.596z"/>
		</g>
	</g>
</g>
<g>
</g>
<g>
</g>
<g>
</g>
<g>
</g>
<g>
</g>
<g>
</g>
<g>
</g>
<g>
</g>
<g>
</g>
<g>
</g>
<g>
</g>
<g>
</g>
<g>
</g>
<g>
</g>
<g>
</g>
</svg>
